<!--?xml version="1.0" encoding="utf-8"?-->
<!-- Generator: Adobe Illustrator 19.1.0, SVG Export Plug-In . SVG Version: 6.00 Build 0)  -->
<svg version="1.1" id="Layer_1" xmlns="http://www.w3.org/2000/svg" xmlns:xlink="http://www.w3.org/1999/xlink" x="0px" y="0px" width="486px" height="494px" viewBox="0 0 486 494" enable-background="new 0 0 486 494" xml:space="preserve">
<path fill="#D22144" d="M30.8,335.5c2.4-2.1,7.1-6,12.9-9c0.2-0.2,0.5-0.4,0.8-0.6c3-5,9.3-13.8,21.3-17.2c3-0.9,6.1-1.3,9.2-1.3
  c0.7,0,1.3,0,2,0.1l10-9.9c1.6-2.1,3.5-4,5.5-5.7c1.9-1.5,3.9-2.8,6-4c7.4-7.5,16.4-11.9,25.8-12.4l3.5-2c-2.6-9.6-4-19.8-4-30.2
  c0-64.6,52.4-117,117-117c49.2,0,91.3,30.4,108.6,73.4l108.1-43C423.2,70.7,339.1,10,240.9,10C112,10,7.6,114.4,7.6,243.3
  c0,33.9,7.2,66.1,20.2,95.1l2-2.1L30.8,335.5z"></path>
<path fill="#FBD703" d="M240.9,126.3c-64.6,0-117,52.4-117,117c0,10.5,1.4,20.6,4,30.2l51.7-28.9l18,27.8l35.5-18.7
  c14.6-10.9,26.1-16.3,36.6-17.2c10.9-7.7,38.7-26.2,44.9-30.3l9.9-6.5l7.2,9.4c0.9,1.2,3.9,5.1,7,9.5l14.5-8.4
  c-1.1-3.6-2.3-7.1-3.6-10.6C332.2,156.7,290.1,126.3,240.9,126.3"></path>
<path fill="#283277" d="M461.7,303.7c-0.3-1.7-0.6-3.4-0.9-4.9c-1.3-8-2-13.8-1.9-15.6c0.4-7.8-2.4-15-8-20.3
  c-3.6-3.4-8.2-5.9-13.7-7.3c-2.5-10.1-8.6-19.2-11.8-31.3l-15.1-32.4l-76.1,44c-2.8-6-12.7-18.9-12.7-18.9s-42.4,28.1-47.7,32.3
  c-8.8-0.5-19.5,4.3-34,15.3l-46.7,24.5l-17.8-27.6l-47.7,26.6c-7.8-0.4-15.3,3.1-21.5,10.2c-2,0.9-3.9,2-5.6,3.4
  c-1.5,1.2-2.8,2.6-4,4.2L81.3,321c-3.9-1.2-8-1.3-12-0.1c-7.8,2.2-12,7.9-15,13.4c-2,1.5-3.5,2.6-4.1,3.1c-5.1,2.4-9.3,6-11,7.5
  l-0.6,0.5l-5,5.2l8.4,15.8l0.1,0.2c3.4,4.8,40.1-8,45.1-11.6c14.9-10.4,32-22.1,29.2-19.3c14.6,8.2,45.6-24.5,45.6-24.5l7.7-10
  c2.7-1.9,3.7-1.3,4.1-0.4c0.6,9.6,3.4,18.5,12.3,13.1l18.3-12.1c3-1.2,5.6-1.6,5.3,1.1l-23.7,43.5c0,0-1.3,13.3,26.2-7.3
  c27.5-20.6,47.3-10.3,57.6-31.8c10.3-21.5,30.9-8.6,38.7-32.7c2.1-6.6,3.8-12.9,5-18.7c0.5-0.5,1-0.8,1.6-0.8
  c0.9,8.6,3.9,15.6,12.1,10.7l12.1-8c1.5,0.3,2.9,1,2.1,2.6c-0.2,0.3-0.2,0.4-0.1,0.4c-3,8.3-6,16.8-7.8,21.5
  c-4.3,11.2-3.9,30.6,0.4,38.7c7.1,13.2,4.3,16.8,4.3,16.8s-6.4,13.8,8.6,7.3c15-6.4,38.7-26.2,38.7-26.2s8.2-4.7,5.6,3
  c-2.6,7.7,9.9,10.7,24.5-3c10.8-10.2,23.3-19.2,29-23.2c0.1,1,0.3,2,0.4,3c0.7,4.4,1.4,8.3,1.8,10.3l0.5,2.6l2,1.8
  c2.8,2.5,9.5,11.3,14.2,19.6c1.1,2,2.2,4,3,5.8l1.9-6l0.4,0c-0.1-0.2-0.1-0.4-0.2-0.6l3.7-12.1C469,308.5,468,310,461.7,303.7"></path>
<path fill="#283277" d="M27.1,394.9c-3.2,0-6.1,1.6-6.1,4.7c0,3.6,4.4,4.7,8.1,5.9c6.7,2.3,14.7,5.4,14.7,15.3
  c0,10.2-9.6,14.6-17.9,14.6c-7.3,0-12.9-2.8-18.1-7.9l6.4-6.3c3.8,3.7,6.8,5.9,11.7,5.9c3.8,0,7.5-1.8,7.5-6c0-4-4.3-5.6-9.1-7.3
  c-6.1-2.3-13-5-13-14c0-9,7.6-13.2,15.4-13.2c6.1,0,10.9,2,15.6,5.6l-5.5,6.9C34.2,396.9,30.7,394.9,27.1,394.9"></path>
<polygon fill="#283277" points="67,395.6 67,434.6 57.3,434.6 57.3,395.6 46.1,395.6 46.1,387.5 78.2,387.5 78.2,395.6 "></polygon>
<path fill="#283277" d="M106.8,434.6l-3-8.8H87l-3.2,8.8H73.1l19.3-47.2h7.8l17.7,47.2H106.8z M89.8,418H101l-5.5-15.8h-0.1
  L89.8,418z"></path>
<polygon fill="#283277" points="133.6,395.6 133.6,434.6 124,434.6 124,395.6 112.8,395.6 112.8,387.5 144.8,387.5 144.8,395.6 "></polygon>
<polygon fill="#283277" points="150.9,434.6 150.9,387.5 181.2,387.5 181.2,395.6 160.5,395.6 160.5,406.3 181.2,406.3 181.2,414.4 
  160.5,414.4 160.5,426.5 181.2,426.5 181.2,434.6 "></polygon>
<path fill="#283277" d="M202.1,412.6c-7.3,0-12.9-5.7-12.9-12.8c0-7,5.6-12.8,12.9-12.8c7.3,0,12.9,5.7,12.9,12.8
  C215,406.8,209.3,412.6,202.1,412.6 M202.1,391.4c-4.4,0-7.5,3.7-7.5,8.4s3.2,8.3,7.5,8.3c4.3,0,7.5-3.7,7.5-8.3
  S206.4,391.4,202.1,391.4"></path>
<polygon fill="#283277" points="222.4,402.2 222.4,412.1 217.3,412.1 217.3,387.5 231,387.5 231,391.7 222.4,391.7 222.4,397.9 
  231,397.9 231,402.2 "></polygon>
<polygon fill="#283277" points="196.7,420.8 196.7,435.1 193.2,435.1 193.2,420.8 189.1,420.8 189.1,417.8 200.8,417.8 200.8,420.8 
  "></polygon>
<polygon fill="#283277" points="213.8,435.1 213.8,427.7 206.4,427.7 206.4,435.1 202.9,435.1 202.9,417.8 206.4,417.8 206.4,424.7 
  213.8,424.7 213.8,417.8 217.3,417.8 217.3,435.1 "></polygon>
<polygon fill="#283277" points="219.9,435.1 219.9,417.8 230.9,417.8 230.9,420.8 223.4,420.8 223.4,424.7 230.9,424.7 230.9,427.7 
  223.4,427.7 223.4,432.1 230.9,432.1 230.9,435.1 "></polygon>
<polygon fill="#283277" points="271.3,434.6 264.4,434.6 250.7,400.1 250.7,434.6 241,434.6 241,387.5 255.2,387.5 267.9,420.3 
  281.1,387.5 295,387.5 295,434.6 285.4,434.6 285.4,400.2 "></polygon>
<path fill="#283277" d="M334.3,434.6l-3-8.8h-16.8l-3.2,8.8h-10.7l19.3-47.2h7.8l17.7,47.2H334.3z M317.3,418h11.3l-5.5-15.8h-0.1
  L317.3,418z"></path>
<path fill="#283277" d="M366.1,387.5c8,0,17.7,3.9,17.7,14.6c0,10.9-9.6,14.8-17.7,14.8h-5.4v17.8h-9.6v-47.2H366.1z M360.8,408.7
  h3.8c5.1,0,9-1.7,9-6.4c0-4.2-3.1-6.7-7.7-6.7h-5.1V408.7z"></path>
<path fill="#D22144" d="M433.1,412.4c0,14.8-5.7,23.1-19.1,23.1c-13.2,0-18.9-8.2-18.9-23.1v-24.9h9.6v26.2c0,9,3.6,13.3,9.4,13.3
  c5.7,0,9.4-4.3,9.4-13.3v-26.2h9.6V412.4z"></path>
<path fill="#D22144" d="M455.6,394.9c-3.2,0-6.1,1.6-6.1,4.7c0,3.6,4.4,4.7,8.1,5.9c6.7,2.3,14.7,5.4,14.7,15.3
  c0,10.2-9.6,14.6-17.9,14.6c-7.3,0-12.9-2.8-18.1-7.9l6.4-6.3c3.8,3.7,6.8,5.9,11.7,5.9c3.8,0,7.5-1.8,7.5-6c0-4-4.3-5.6-9.1-7.3
  c-6.1-2.3-13-5-13-14c0-9,7.6-13.2,15.4-13.2c6.1,0,10.9,2,15.6,5.6l-5.5,6.9C462.7,396.9,459.2,394.9,455.6,394.9"></path>
<path fill="#283277" d="M27.1,394.9c-3.2,0-6.1,1.6-6.1,4.7c0,3.6,4.4,4.7,8.1,5.9c6.7,2.3,14.7,5.4,14.7,15.3
  c0,10.2-9.6,14.6-17.9,14.6c-7.3,0-12.9-2.8-18.1-7.9l6.4-6.3c3.8,3.7,6.8,5.9,11.7,5.9c3.8,0,7.5-1.8,7.5-6c0-4-4.3-5.6-9.1-7.3
  c-6.1-2.3-13-5-13-14c0-9,7.6-13.2,15.4-13.2c6.1,0,10.9,2,15.6,5.6l-5.5,6.9C34.2,396.9,30.7,394.9,27.1,394.9"></path>
<polygon fill="#283277" points="67,395.6 67,434.6 57.3,434.6 57.3,395.6 46.1,395.6 46.1,387.5 78.2,387.5 78.2,395.6 "></polygon>
<path fill="#283277" d="M106.8,434.6l-3-8.8H87l-3.2,8.8H73.1l19.3-47.2h7.8l17.7,47.2H106.8z M89.8,418H101l-5.5-15.8h-0.1
  L89.8,418z"></path>
<polygon fill="#283277" points="133.6,395.6 133.6,434.6 124,434.6 124,395.6 112.8,395.6 112.8,387.5 144.8,387.5 144.8,395.6 "></polygon>
<polygon fill="#283277" points="150.9,434.6 150.9,387.5 181.2,387.5 181.2,395.6 160.5,395.6 160.5,406.3 181.2,406.3 181.2,414.4 
  160.5,414.4 160.5,426.5 181.2,426.5 181.2,434.6 "></polygon>
<path fill="#283277" d="M202.1,412.6c-7.3,0-12.9-5.7-12.9-12.8c0-7,5.6-12.8,12.9-12.8c7.3,0,12.9,5.7,12.9,12.8
  C215,406.8,209.3,412.6,202.1,412.6 M202.1,391.4c-4.4,0-7.5,3.7-7.5,8.4s3.2,8.3,7.5,8.3c4.3,0,7.5-3.7,7.5-8.3
  S206.4,391.4,202.1,391.4"></path>
<polygon fill="#283277" points="222.4,402.2 222.4,412.1 217.3,412.1 217.3,387.5 231,387.5 231,391.7 222.4,391.7 222.4,397.9 
  231,397.9 231,402.2 "></polygon>
<polygon fill="#283277" points="196.7,420.8 196.7,435.1 193.2,435.1 193.2,420.8 189.1,420.8 189.1,417.8 200.8,417.8 200.8,420.8 
  "></polygon>
<polygon fill="#283277" points="213.8,435.1 213.8,427.7 206.4,427.7 206.4,435.1 202.9,435.1 202.9,417.8 206.4,417.8 206.4,424.7 
  213.8,424.7 213.8,417.8 217.3,417.8 217.3,435.1 "></polygon>
<polygon fill="#283277" points="219.9,435.1 219.9,417.8 230.9,417.8 230.9,420.8 223.4,420.8 223.4,424.7 230.9,424.7 230.9,427.7 
  223.4,427.7 223.4,432.1 230.9,432.1 230.9,435.1 "></polygon>
<polygon fill="#283277" points="271.3,434.6 264.4,434.6 250.7,400.1 250.7,434.6 241,434.6 241,387.5 255.2,387.5 267.9,420.3 
  281.1,387.5 295,387.5 295,434.6 285.4,434.6 285.4,400.2 "></polygon>
<path fill="#283277" d="M334.3,434.6l-3-8.8h-16.8l-3.2,8.8h-10.7l19.3-47.2h7.8l17.7,47.2H334.3z M317.3,418h11.3l-5.5-15.8h-0.1
  L317.3,418z"></path>
<path fill="#283277" d="M366.1,387.5c8,0,17.7,3.9,17.7,14.6c0,10.9-9.6,14.8-17.7,14.8h-5.4v17.8h-9.6v-47.2H366.1z M360.8,408.7
  h3.8c5.1,0,9-1.7,9-6.4c0-4.2-3.1-6.7-7.7-6.7h-5.1V408.7z"></path>
<path fill="#D22144" d="M433.1,412.4c0,14.8-5.7,23.1-19.1,23.1c-13.2,0-18.9-8.2-18.9-23.1v-24.9h9.6v26.2c0,9,3.6,13.3,9.4,13.3
  c5.7,0,9.4-4.3,9.4-13.3v-26.2h9.6V412.4z"></path>
<path fill="#D22144" d="M455.6,394.9c-3.2,0-6.1,1.6-6.1,4.7c0,3.6,4.4,4.7,8.1,5.9c6.7,2.3,14.7,5.4,14.7,15.3
  c0,10.2-9.6,14.6-17.9,14.6c-7.3,0-12.9-2.8-18.1-7.9l6.4-6.3c3.8,3.7,6.8,5.9,11.7,5.9c3.8,0,7.5-1.8,7.5-6c0-4-4.3-5.6-9.1-7.3
  c-6.1-2.3-13-5-13-14c0-9,7.6-13.2,15.4-13.2c6.1,0,10.9,2,15.6,5.6l-5.5,6.9C462.7,396.9,459.2,394.9,455.6,394.9"></path>
<path fill="#525C93" d="M15.4,447.2c2.4,0,5,0.4,6.8,1.6c1.9,1.3,3,3.2,3,5.5c0,2.1-1.1,3.9-3.2,4.9c2.6,0.9,4.2,3.1,4.2,5.7
  c0,3-1.8,5.3-4.5,6.5c-1.9,0.8-4.4,1-6.6,1H8.8v-25.2H15.4z M14,457.5h1.4c3,0,4.7-1,4.7-3c0-1.2-0.5-1.9-1.1-2.3
  c-1-0.6-2.4-0.6-4-0.6h-1V457.5z M14,468.1h1.2c1.5,0,3.1,0,4.2-0.5c0.9-0.5,1.4-1.2,1.4-2.5c0-2.1-1.4-3.4-3.9-3.4H14V468.1z"></path>
<path fill="#525C93" d="M42.8,472.8c-7.5,0-13.2-5.8-13.2-13c0-7.2,5.7-13,13.2-13c7.4,0,13.2,5.8,13.2,13
  C56,467,50.3,472.8,42.8,472.8 M42.8,451.3c-4.5,0-7.7,3.7-7.7,8.5c0,4.8,3.2,8.5,7.7,8.5c4.4,0,7.7-3.7,7.7-8.5
  C50.5,455,47.2,451.3,42.8,451.3"></path>
<path fill="#525C93" d="M80.8,460.5c0,7.9-3,12.3-10.2,12.3c-7,0-10.1-4.4-10.1-12.3v-13.3h5.1v14c0,4.8,1.9,7.1,5,7.1
  c3.1,0,5-2.3,5-7.1v-14h5.1V460.5z"></path>
<polygon fill="#525C93" points="86.3,472.4 86.3,447.2 91.5,447.2 91.5,468 101.8,468 101.8,472.4 "></polygon>
<path fill="#525C93" d="M104.7,447.2h7.3c6.5,0,13.8,3.4,13.8,12.5c0,9.3-7.2,12.7-14.1,12.7h-7V447.2z M109.9,468h0.6
  c5.9,0,9.9-2.1,9.9-8c0-5.5-3.3-8.5-8.9-8.5h-1.6V468z"></path>
<polygon fill="#525C93" points="130.5,472.4 130.5,447.2 146.6,447.2 146.6,451.6 135.6,451.6 135.6,457.2 146.6,457.2 146.6,461.6 
  135.6,461.6 135.6,468 146.6,468 146.6,472.4 "></polygon>
<path fill="#525C93" d="M159.3,447.2c4.1,0,9.2,2.1,9.2,7.6c0,3.9-2.7,6.1-5.5,7c2.2,3.1,6,8.3,7.7,10.6h-6.5l-6.9-10h-0.9v10h-5.1
  v-25.2H159.3z M156.5,458h2c2.6,0,4.5-0.9,4.5-3.1c0-2-1.5-3.3-3.8-3.3h-2.7V458z"></path>
<polygon fill="#525C93" points="176.4,476.9 171.5,476.9 173.6,467 179,467 "></polygon>
<path fill="#525C93" d="M204.9,468.3c1.9,0,3.8-0.8,5.4-2.1l2.9,3.7c-2.4,1.9-5.4,2.8-8.5,2.8c-7.6,0-13.2-5.3-13.2-13
  c0-7.4,6-13,13.4-13c2.9,0,5.3,0.9,7.7,2.4l-2.5,4c-1.5-1.2-3.3-1.9-5.3-1.9c-4.6,0-7.9,3.7-7.9,8.5
  C196.9,464.8,199.9,468.3,204.9,468.3"></path>
<path fill="#525C93" d="M227.3,472.8c-7.5,0-13.2-5.8-13.2-13c0-7.2,5.7-13,13.2-13c7.4,0,13.2,5.8,13.2,13
  C240.5,467,234.7,472.8,227.3,472.8 M227.3,451.3c-4.5,0-7.7,3.7-7.7,8.5c0,4.8,3.2,8.5,7.7,8.5c4.4,0,7.7-3.7,7.7-8.5
  C235,455,231.7,451.3,227.3,451.3"></path>
<polygon fill="#525C93" points="245,472.4 245,447.2 250.2,447.2 250.2,468 260.5,468 260.5,472.4 "></polygon>
<path fill="#525C93" d="M274.5,472.8c-7.5,0-13.2-5.8-13.2-13c0-7.2,5.7-13,13.2-13c7.4,0,13.2,5.8,13.2,13
  C287.7,467,282,472.8,274.5,472.8 M274.5,451.3c-4.5,0-7.7,3.7-7.7,8.5c0,4.8,3.2,8.5,7.7,8.5c4.4,0,7.7-3.7,7.7-8.5
  C282.2,455,279,451.3,274.5,451.3"></path>
<path fill="#525C93" d="M300.3,447.2c4.1,0,9.2,2.1,9.2,7.6c0,3.9-2.7,6.1-5.5,7c2.2,3.1,6,8.3,7.7,10.6h-6.5l-6.9-10h-0.9v10h-5.1
  v-25.2H300.3z M297.4,458h2c2.6,0,4.5-0.9,4.5-3.1c0-2-1.5-3.3-3.9-3.3h-2.7V458z"></path>
<path fill="#525C93" d="M331.4,472.4l-1.6-4.7h-9l-1.7,4.7h-5.7l10.3-25.2h4.2l9.5,25.2H331.4z M322.3,463.5h6l-2.9-8.5h0
  L322.3,463.5z"></path>
<path fill="#525C93" d="M340.8,447.2h7.3c6.5,0,13.8,3.4,13.8,12.5c0,9.3-7.2,12.7-14.1,12.7h-7V447.2z M345.9,468h0.6
  c5.9,0,9.9-2.1,9.9-8c0-5.5-3.3-8.5-8.9-8.5h-1.6V468z"></path>
<path fill="#525C93" d="M378.6,472.8c-7.5,0-13.2-5.8-13.2-13c0-7.2,5.7-13,13.2-13c7.4,0,13.2,5.8,13.2,13
  C391.8,467,386.1,472.8,378.6,472.8 M378.6,451.3c-4.5,0-7.7,3.7-7.7,8.5c0,4.8,3.2,8.5,7.7,8.5c4.4,0,7.7-3.7,7.7-8.5
  C386.3,455,383.1,451.3,378.6,451.3"></path>
<path fill="#525C93" d="M420.6,472.4h-16v-3.8c2.8-2.9,6-6.6,8.1-9.6c0.9-1.3,1.7-2.8,1.7-4.2c0-1.5-1.1-2.4-2.6-2.4
  c-1.7,0-2.7,1.3-2.7,3.4l-5.1-0.8c0.3-4.1,3.9-6.8,7.9-6.8c4,0,7.7,2.4,7.7,6.6c0,2.4-1,4.7-2.4,6.7c-1.7,2.4-3.8,4.7-5.8,6.8h9.2
  V472.4z"></path>
<path fill="#525C93" d="M440.8,460.4c0,7.7-3.2,12.4-8.9,12.4c-5.7,0-8.9-4.7-8.9-12.4s3.2-12.4,8.9-12.4
  C437.6,448.1,440.8,452.7,440.8,460.4 M428.2,460.4c0,5.4,1.4,8,3.7,8c2.4,0,3.7-2.6,3.7-8s-1.4-8-3.7-8
  C429.5,452.4,428.2,455,428.2,460.4"></path>
<path fill="#525C93" d="M447,472.4v-18c-1.1,0.5-2.4,1.1-3.4,1.5v-4.6c1.5-0.8,3.4-1.8,5.1-2.7h3.3v23.9H447z"></path>
<path fill="#525C93" d="M471.5,451.7c-2.9,6.1-7.2,15.6-9.8,21.8l-4.6-2c3.2-7.6,6.8-14.5,8.7-18.7h-10.5v-4.3h16.2V451.7z"></path>
<path fill="none" d="M40.5,123.7c-9,15-16.3,31.2-21.8,48.2l0,0C24.2,154.9,31.5,138.8,40.5,123.7L40.5,123.7z"></path>
<path fill="none" d="M68.1,308.1c2.3-0.5,4.6-0.7,7-0.7c0,0,0,0,0,0C72.7,307.4,70.4,307.6,68.1,308.1z"></path>
<path fill="none" d="M289.1,147.7c4-1.6,8-3.2,11.9-4.8c-5.5-3.3-11.2-6.1-17.2-8.5L289.1,147.7z"></path>
<path fill="none" d="M44.5,325.9c-0.3,0.2-0.6,0.4-0.8,0.6c-5.9,3-10.6,6.9-12.9,9l-0.9,0.8l-1.6,1.6l1.6-1.6l0.9-0.8
  c2.4-2.1,7.1-6,12.9-9C43.9,326.3,44.2,326.1,44.5,325.9c2.8-4.7,8.4-12.5,18.9-16.4C52.9,313.3,47.3,321.2,44.5,325.9z"></path>
<path fill="none" d="M7.6,243.3c0-22.2,3.1-43.7,8.9-64l0,0C10.7,199.6,7.6,221.1,7.6,243.3c0,5.5,0.2,10.9,0.6,16.3c0,0,0,0,0,0
  C7.8,254.2,7.6,248.8,7.6,243.3z"></path>
<path fill="none" d="M63.7,309.4C63.7,309.4,63.6,309.4,63.7,309.4C63.6,309.4,63.7,309.4,63.7,309.4z"></path>
<path fill="none" d="M9.4,272c1.7,13.9,4.7,27.5,8.7,40.5C14,299.5,11.1,285.9,9.4,272C9.4,272,9.4,272,9.4,272z"></path>
<path fill="none" d="M304.6,18.8c17.4,4.9,33.9,11.8,49.4,20.4l0,0C338.5,30.6,322,23.7,304.6,18.8L304.6,18.8z"></path>
<path fill="none" d="M388.4,62.6c2.9,2.4,5.8,4.8,8.6,7.3C394.1,67.4,391.3,64.9,388.4,62.6z"></path>
<path fill="none" d="M385.4,60.2c-7.9-6.2-16.1-11.9-24.8-17.1l0,0C369.3,48.2,377.5,54,385.4,60.2z"></path>
<path fill="none" d="M199.1,134L199.1,134c13-5,27.1-7.7,41.8-7.7c0,0,0,0,0,0C226.2,126.3,212.1,129,199.1,134z"></path>
<path fill="none" d="M92.5,291.9c-2,1.7-3.9,3.6-5.5,5.7l-10,9.9c-0.6,0-1.3-0.1-1.9-0.1c0.6,0,1.3,0,1.9,0.1l10-9.9
  C88.6,295.5,90.5,293.6,92.5,291.9c1.9-1.5,3.9-2.8,6-4c1.4-1.4,2.8-2.7,4.2-3.8c-1.5,1.2-2.9,2.4-4.2,3.8
  C96.4,289,94.4,290.4,92.5,291.9z"></path>
<path fill="none" d="M349.5,199.7L349.5,199.7c-3.2-8.1-7.4-15.7-12.2-22.8C342.1,184,346.2,191.6,349.5,199.7z"></path>
<path fill="none" d="M66.2,88.7c-7.4,8.3-14.2,17.2-20.3,26.5l0,0C52.1,105.8,58.9,97,66.2,88.7z"></path>
<path fill="none" d="M131,202.9L131,202.9c10.3-27.9,30.8-50.8,57.1-64.1v0C161.8,152.1,141.3,175,131,202.9z"></path>
<path fill="none" d="M294.8,16.3c-17.3-4.1-35.4-6.3-53.9-6.3c0,0,0,0,0,0C259.4,10,277.5,12.2,294.8,16.3L294.8,16.3z"></path>
<path fill="none" d="M123.9,243.3c0,10.5,1.4,20.6,4,30.2l-3.5,2c-3.5,0.2-6.9,0.9-10.2,2.1c3.3-1.2,6.7-1.9,10.2-2.1l3.5-2
  C125.3,263.9,123.9,253.8,123.9,243.3c0-5.9,0.4-11.7,1.3-17.3c0,0,0,0,0,0C124.3,231.6,123.9,237.4,123.9,243.3z"></path>
<path fill="#FFFFFF" d="M276.3,131.8c2.5,0.8,5.1,1.7,7.5,2.7l0,0C281.4,133.5,278.9,132.6,276.3,131.8L276.3,131.8z"></path>
<polygon fill="#FFFFFF" points="241.5,43.9 255.2,78.4 260.7,76.1 247.1,41.7 "></polygon>
<path fill="#FFFFFF" d="M234.6,10.1L234.6,10.1c-2.1,0.1-4.2,0.1-6.4,0.3v0C230.3,10.2,232.4,10.1,234.6,10.1z"></path>
<path fill="#FFFFFF" d="M244.9,36.1l-10.3-26c-2.1,0.1-4.2,0.1-6.4,0.3l11.1,28L244.9,36.1z"></path>
<path fill="#FFFFFF" d="M276.3,131.8c2.5,0.8,5.1,1.7,7.5,2.7l-20.9-52.7l-5.6,2.2L276.3,131.8z"></path>
<path fill="#FFFFFF" d="M354.3,121.7c1.9-0.7,3.7-1.5,5.6-2.2l-25.6-65.9l-5.6,2.2L354.3,121.7z"></path>
<path fill="#FFFFFF" d="M358.7,132.8l21.3,54.7l5.6-2.2l-21.3-54.7C362.4,131.4,360.5,132.1,358.7,132.8z"></path>
<rect x="382.7" y="183.5" fill="#FFFFFF" width="0" height="6"></rect>
<path fill="#FFFFFF" d="M354,39.2c2.2,1.2,4.4,2.5,6.6,3.8l0,0C358.5,41.8,356.3,40.5,354,39.2L354,39.2z"></path>
<path fill="#FFFFFF" d="M18.7,171.9L18.7,171.9c-0.8,2.4-1.5,4.9-2.2,7.3l0,0C17.2,176.8,17.9,174.3,18.7,171.9z"></path>
<path fill="#FFFFFF" d="M43.2,168l5.5-2.4l0.3,0.8l52.8-20.9l-2.2-5.6l-80.9,32c-0.8,2.4-1.5,4.9-2.2,7.3l26.9-10.7L43.2,168z"></path>
<polygon fill="#FFFFFF" points="189.9,110.6 257.4,83.9 255.2,78.4 187.8,105 "></polygon>
<polygon fill="#FFFFFF" points="176.6,109.4 105.2,137.7 107.4,143.3 178.8,115 "></polygon>
<path fill="#FFFFFF" d="M260.7,76.1l2.2,5.6l65.7-26l-1.1-2.8l5.6-2.2l1.1,2.8l26.4-10.4c-2.2-1.3-4.4-2.6-6.6-3.8L260.7,76.1z"></path>
<rect x="256.1" y="77" transform="matrix(-0.3684 -0.9297 0.9297 -0.3684 280.0814 350.3563)" fill="#FFFFFF" width="6" height="6"></rect>
<polygon fill="#FFFFFF" points="327.6,52.9 328.7,55.7 334.3,53.5 333.2,50.7 "></polygon>
<path fill="#FFFFFF" d="M128.1,211.9C128.1,211.9,128.1,211.9,128.1,211.9c0.8-3,1.8-6,2.9-8.9l0,0
  C129.9,205.9,129,208.8,128.1,211.9z"></path>
<path fill="#FFFFFF" d="M75.4,78.8l8.4,21.2l5.6-2.2l-9.3-23.6C78.5,75.8,77,77.3,75.4,78.8z"></path>
<path fill="#FFFFFF" d="M107.4,143.3l-5.6,2.2l26.3,66.4c0,0,0,0,0,0c0.8-3,1.8-6,2.9-8.9L107.4,143.3z"></path>
<polygon fill="#FFFFFF" points="91.6,103.4 86.1,105.6 99.6,139.9 105.2,137.7 "></polygon>
<path fill="#FFFFFF" d="M80.1,74.3L80.1,74.3c-1.6,1.5-3.1,3-4.7,4.6l0,0C77,77.3,78.5,75.8,80.1,74.3z"></path>
<rect x="100.5" y="138.6" transform="matrix(0.9298 -0.3679 0.3679 0.9298 -44.834 48.0187)" fill="#FFFFFF" width="6" height="6"></rect>
<path fill="#FFFFFF" d="M304.6,18.8L304.6,18.8c-3.2-0.9-6.5-1.8-9.8-2.6l0,0C298.1,17,301.4,17.9,304.6,18.8z"></path>
<path fill="#FFFFFF" d="M45.9,115.1c-1.9,2.8-3.7,5.7-5.4,8.6l0,0C42.3,120.8,44.1,117.9,45.9,115.1L45.9,115.1z"></path>
<path fill="#FFFFFF" d="M304.6,18.8c-3.2-0.9-6.5-1.8-9.8-2.6l-49.9,19.8l2.2,5.6L304.6,18.8z"></path>
<polygon fill="#FFFFFF" points="172.1,65 174.3,70.6 241.5,43.9 239.3,38.3 "></polygon>
<path fill="#FFFFFF" d="M45.9,115.1c-1.9,2.8-3.7,5.7-5.4,8.6l45.5-18.1l-2.2-5.6L45.9,115.1z"></path>
<polygon fill="#FFFFFF" points="160.9,69.4 89.4,97.8 91.6,103.4 163.1,75 "></polygon>
<polygon fill="#FFFFFF" points="241.5,43.9 247.1,41.7 244.9,36.1 239.3,38.3 "></polygon>
<polygon fill="#FFFFFF" points="89.4,97.8 83.9,100.1 86.1,105.6 91.6,103.4 "></polygon>
<path fill="#FFFFFF" d="M43.4,168.6l29,65.5c1.8-0.7,3.7-1.5,5.6-2.2l-29-65.4L43.4,168.6z"></path>
<polygon fill="#FFFFFF" points="48.7,165.6 43.2,168 43.4,168.6 49,166.4 "></polygon>
<path fill="#FFFFFF" d="M188.1,138.8L188.1,138.8c3.6-1.8,7.2-3.4,11-4.9v0C195.3,135.4,191.7,137,188.1,138.8z"></path>
<path fill="#FFFFFF" d="M172.1,65l-15.4-39.3c-3.7,1.4-7.4,3-11.1,4.6l15.3,39.1L172.1,65z"></path>
<path fill="#FFFFFF" d="M188.1,138.8c3.6-1.8,7.2-3.4,11-4.9l-9.2-23.4l-11.2,4.4L188.1,138.8z"></path>
<path fill="#FFFFFF" d="M156.7,25.7L156.7,25.7c-3.7,1.4-7.4,3-11.1,4.6l0,0C149.2,28.7,152.9,27.1,156.7,25.7z"></path>
<polygon fill="#FFFFFF" points="176.6,109.4 187.8,105 174.3,70.6 163.1,75 "></polygon>
<polygon fill="#FFFFFF" points="176.6,109.4 178.8,115 189.9,110.6 187.8,105 "></polygon>
<polygon fill="#FFFFFF" points="160.9,69.4 163.1,75 174.3,70.6 172.1,65 "></polygon>
<path fill="#FFFFFF" d="M128.1,211.9c-1.3,4.6-2.3,9.3-3,14c0,0,0,0,0,0C125.9,221.2,126.9,216.5,128.1,211.9L128.1,211.9z"></path>
<path fill="#FFFFFF" d="M8.2,259.6C8.2,259.6,8.2,259.6,8.2,259.6c0.3,4.2,0.7,8.3,1.2,12.4c0,0,0,0,0,0
  C8.9,267.9,8.5,263.8,8.2,259.6z"></path>
<path fill="#FFFFFF" d="M364.2,130.6c22-8.8,43.6-17.4,64.4-25.7c-2.5-3.4-5-6.6-7.7-9.9c-19.8,7.9-40.3,16.1-61.1,24.4L364.2,130.6
  z"></path>
<path fill="#FFFFFF" d="M301,142.9C301,142.9,301,142.9,301,142.9c4.1,2.5,8.1,5.2,11.9,8.2c0,0,0,0,0,0
  C309.1,148.2,305.2,145.4,301,142.9z"></path>
<path fill="#FFFFFF" d="M78,231.8l1.1,2.5l-5.5,2.4l-1.2-2.7c-23.1,9.2-44.8,17.8-64.3,25.5c0.3,4.2,0.7,8.3,1.2,12.4
  c33.3-13.2,72.8-28.9,115.8-46c0.7-4.8,1.7-9.5,3-14l0-0.1C110.8,218.8,94.1,225.4,78,231.8z"></path>
<path fill="#FFFFFF" d="M421,95c2.6,3.2,5.2,6.5,7.7,9.9c0,0,0,0,0,0C426.2,101.5,423.6,98.3,421,95L421,95z"></path>
<path fill="#FFFFFF" d="M301,142.9c4.1,2.5,8.1,5.2,11.9,8.2c15.4-6.1,30.7-12.2,45.8-18.3l-4.3-11.2
  C336.7,128.7,318.9,135.8,301,142.9z"></path>
<path fill="#FFFFFF" d="M359.9,119.4c-1.9,0.7-3.7,1.5-5.6,2.2l4.3,11.2c1.9-0.7,3.7-1.5,5.6-2.2L359.9,119.4z"></path>
<path fill="#FFFFFF" d="M128.1,211.9C128.1,211.9,128.1,211.9,128.1,211.9L128.1,211.9C128.1,211.9,128.1,211.9,128.1,211.9
  C128.1,211.9,128.1,211.9,128.1,211.9z"></path>
<path fill="#FFFFFF" d="M128.1,211.9L128.1,211.9C128.1,211.9,128.1,211.9,128.1,211.9C128.1,211.9,128.1,211.9,128.1,211.9z"></path>
<path fill="#FFFFFF" d="M73.7,236.8l5.5-2.4l-1.1-2.5c-1.9,0.7-3.7,1.5-5.6,2.2L73.7,236.8z"></path>
</svg>